inDegrees=yes
name=IK-offline
DataType=double
version=3
OpenSimVersion=4.1
endheader
time	pelvis_tilt	pelvis_list	pelvis_rotation	pelvis_tx	pelvis_ty	pelvis_tz	hip_flexion_r	hip_adduction_r	hip_rotation_r	knee_angle_r	ankle_angle_r	subtalar_angle_r	mtp_angle_r	hip_flexion_l	hip_adduction_l	hip_rotation_l	knee_angle_l	ankle_angle_l	subtalar_angle_l	mtp_angle_l	lumbar_extension	lumbar_bending	lumbar_rotation	neck_flex	neck_latbend	neck_rot	arm_flex_r	arm_add_r	arm_rot_r	elbow_flex_r	pro_sup_r	wrist_flex_r	wrist_dev_r	arm_flex_l	arm_add_l	arm_rot_l	elbow_flex_l	pro_sup_l	wrist_flex_l	wrist_dev_l
34.9558862	5.658369852282648	-0.4658574350823015	60.87987741603307	0	1	0	-0.1049385638798435	16.86646767781376	-11.0517537058245	-3.272210320366713	3.073451095115397	-15.20371322174496	0	25.68883361905385	-5.679885275856336	21.93440165167135	-35.26679512162631	-12.73257461956575	14.39661449530667	0	-11.73868203461124	-10.03695465107749	9.442546766464904	-7.126537823520923	-2.824642259005198	63.80283234063004	9.856049610213088	-1.463793945933073	23.45252379084702	28.70841766477913	46.73902677248673	1.313781638365633	1.995035862848726	5.849630938098901	-21.19550615325241	5.545186420891256	11.05593077673383	46.63041677671671	1.888467285408934	4.781766265793598
34.9769314	5.679413089766988	-0.4647050857321746	60.9122574858644	0	1	0	-0.09215323402434289	16.90170134448996	-11.08516976780073	-3.286507407402233	3.082414448764723	-15.18816831493356	0	25.68343658116193	-5.683324102944486	21.97511714864707	-35.26530821931125	-12.72112763899644	14.37057530234348	0	-11.69483929132893	-10.03488218071737	9.443099443684167	-7.200011136609982	-2.845248722760765	63.77004806019005	9.844794274911923	-1.477788437288521	23.45263705319338	28.6899989755255	46.77337982011551	1.325622253833244	2.022573277601952	5.833760090295991	-21.19609243141652	5.509351021876133	11.05495295263259	46.6551718707887	1.943259014030685	4.847480608326659
35.0064835	5.713703560559052	-0.462636562024347	60.9426563845538	0	1	0	-0.09616835671631685	16.94170651301237	-11.14637273145829	-3.295870697898543	3.096395202765568	-15.16467449620697	0	25.66421517089675	-5.691841159114833	22.01887503048097	-35.26182856353806	-12.70605842851045	14.34348951897628	0	-11.65873145770495	-10.0106246747239	9.433091429422758	-7.287574037844189	-2.887793308203343	63.74003404225812	9.848321477068199	-1.514431227092677	23.50575607171474	28.6696673952754	46.77069863114831	1.32043935101967	2.027376016940133	5.787835664383253	-21.17431484037963	5.459926451544208	11.05477424602812	46.60979387234683	1.903491193349711	4.788529708868813
35.0271655	5.738514152186227	-0.4776699757932685	60.97405156766094	0	1	0	-0.07040946614358262	16.97950585529327	-11.19365820398931	-3.319596007245041	3.094184052688443	-15.09859691732036	0	25.68310318189469	-5.700846788035939	22.04949999859302	-35.27074331853873	-12.70188259925619	14.33465093372048	0	-11.58692516325057	-9.989936382724638	9.431206462171561	-7.390944455809399	-2.908310190675389	63.70310297163358	9.843654754966243	-1.533590339112936	23.51907675141539	28.64274414997671	46.77099183912141	1.33232228346594	2.036777335929281	5.725230683290083	-21.14857595475908	5.424668342169811	11.03624230794862	46.49958468930773	1.829137283071475	4.636874507509082
35.0564615	5.768141683569305	-0.4813187716072876	60.99718840349771	0	1	0	-0.05848939798611197	17.0213481562298	-11.24996811954983	-3.329714670156995	3.098267413589735	-15.06684492374426	0	25.69817232760797	-5.708186993980503	22.06828623415771	-35.28637337292039	-12.69830111689486	14.33167836648901	0	-11.5261897950401	-9.973149158152719	9.423370585579784	-7.469693079714418	-2.922140416194059	63.68735060798282	9.851390212110415	-1.51398794794989	23.50895217293553	28.59211645833677	46.80107986091954	1.352810694912068	2.066359787247825	5.660115870709108	-21.11159747777328	5.365618074464091	10.99721364791505	46.37184257646084	1.790400863782463	4.52036569096857
35.0770194	5.791079430081803	-0.4744038726506806	61.03157862893602	0	1	0	-0.05504863765990583	17.0457638335451	-11.35088639053426	-3.348611168463335	3.141992976151852	-15.06390639097612	0	25.72267506303702	-5.680470842571986	22.12201334421724	-35.31496237545691	-12.69529505203911	14.31033479446129	0	-11.50728885899615	-10.00712235163082	9.419579105053939	-7.502457880882189	-2.892027093997037	63.64953181608701	9.90516318291033	-1.42637045460202	23.45964915407347	28.51931294313161	46.86029637969883	1.368173683967006	2.081916672812646	5.653002659634941	-21.09627907120992	5.352070490285537	10.93689999116365	46.26699010287883	1.728844809123177	4.373278918783631
35.1063194	5.820216909500665	-0.4739100624975518	61.05969154001779	0	1	0	-0.04080018229706549	17.05325217191606	-11.47315060463782	-3.387265407435777	3.163047233472839	-15.0073348634165	0	25.74770114496937	-5.624936550449151	22.18755343007307	-35.3605529082561	-12.67619027628601	14.26602402924051	0	-11.46492614686769	-10.00323104805763	9.405770234573955	-7.561151273622269	-2.918724868327194	63.61148994341293	9.929946076907845	-1.338236466538279	23.42999233117019	28.45306635857279	46.97927240189019	1.371482298015751	2.081301958556848	5.593630063006461	-21.0297097280402	5.282868881405736	10.89194618003723	46.17467529973258	1.534328691104012	4.094991069297211
